<svg width="240" height="114" viewBox="0 0 240 114" fill="none" xmlns="http://www.w3.org/2000/svg">
<g filter="url(#filter0_d_497_2)">
<path d="M37.6019 88.9831C37.4024 88.8787 37.2018 88.7736 37 88.6677C37.1945 88.7757 37.3952 88.8809 37.6019 88.9831C79.9667 111.151 71.9226 99.0283 99.4125 90.103C125.316 81.6927 149.989 131.712 188.369 80.777C202.717 84.6842 208.058 82.6362 214.912 71.8096C242.173 83.2879 240.38 38.4511 217.423 46.3424C215.63 35.9403 206.662 32.3532 196.977 37.3749C196.619 34.8641 195.253 27.2822 188.369 25.1796C202.717 11.549 179.76 -14.6361 165.412 10.4725C158.597 -0.647028 144.249 1.50513 136.717 16.929C120.459 6.84951 113.043 7.60291 107.304 15.4942C85.4237 -12.8426 53.8586 14.4181 80.0432 37.0158C66.0542 42.3962 73.9454 65.3526 95.4671 66.4287C96.5432 70.3743 78.6085 69.2982 75.3802 80.7764C72.2163 92.0259 47.7672 94.014 37.6019 88.9831Z" fill="#B48B49"/>
<path d="M179.041 59.9721C179.041 49.211 166.846 48.8523 165.77 59.9721C166.445 73.7156 190.521 75.0372 190.521 57.8199C190.521 49.5701 187.652 39.1678 172.227 42.3961C173.303 19.0811 138.869 11.5484 136.716 42.3961C110.173 47.418 123.803 71.4504 137.434 69.657C153.934 69.657 151.423 45.9832 139.586 49.2114C134.325 50.6462 133.13 54.9505 135.64 58.5375" stroke="#FFEBDA" stroke-width="2" stroke-linecap="round" stroke-linejoin="round"/>
<path d="M127.396 30.9169C128.108 20.1571 109.681 20.9077 113.76 31.2766C122.369 53.157 152.859 29.1245 136.717 16.9289" stroke="#FFEBDA" stroke-width="2" stroke-linecap="round" stroke-linejoin="round"/>
<path d="M162.542 39.1678C161.466 35.2221 158.596 29.8419 150.705 31.9939" stroke="#FFEBDA" stroke-width="2" stroke-linecap="round" stroke-linejoin="round"/>
<path d="M182.901 19.9501C184.28 16.0997 182.63 10.8311 179.043 10.1138" stroke="#FFEBDA" stroke-width="2" stroke-linecap="round" stroke-linejoin="round"/>
<path d="M97.6197 16.8979C95.1079 12.266 83.9886 11.9072 82.9134 20.516" stroke="#FFEBDA" stroke-width="2" stroke-linecap="round" stroke-linejoin="round"/>
<path d="M154.326 22.0305C155.704 18.1801 155.368 11.5486 147.477 14.7769" stroke="#FFEBDA" stroke-width="2" stroke-linecap="round" stroke-linejoin="round"/>
<path d="M225.314 63.2003C227.466 61.4069 228.49 54.1357 222.5 51.2702" stroke="#FFEBDA" stroke-width="2" stroke-linecap="round" stroke-linejoin="round"/>
<path d="M193.391 70.0156C204.511 80.4177 208.098 56.7439 191.128 62.2227" stroke="#FFEBDA" stroke-width="2" stroke-linecap="round" stroke-linejoin="round"/>
<path d="M184.492 37.5009C185.858 30.5593 172.945 29.8419 176.891 41.6789" stroke="#FFEBDA" stroke-width="2" stroke-linecap="round" stroke-linejoin="round"/>
<path d="M91.6343 53.7388C94.391 28.7657 123.804 56.7437 95.4674 66.7872" stroke="#FFEBDA" stroke-width="2" stroke-linecap="round" stroke-linejoin="round"/>
<path d="M196.98 37.732C198.211 42.7706 190.651 48.937 192.314 51.3635C205.586 70.733 217.423 38.4506 201.283 50.2874" stroke="#FFEBDA" stroke-width="2" stroke-linecap="round" stroke-linejoin="round"/>
<path d="M161.108 97.2763C165.412 95.1242 178.326 86.1569 176.78 80.1572" stroke="#FFEBDA" stroke-width="2" stroke-linecap="round" stroke-linejoin="round"/>
<path d="M131.337 92.6136C153.935 100.505 164.36 83.4934 162.814 77.4937" stroke="#FFEBDA" stroke-width="2" stroke-linecap="round" stroke-linejoin="round"/>
<path d="M113.401 82.1378C95.108 73.6026 85.4233 84.0047 78.9668 91.8959" stroke="#FFEBDA" stroke-width="2" stroke-linecap="round" stroke-linejoin="round"/>
<path d="M85.4234 80.0589C81.1191 80.3639 75.7387 92.2008 69.2822 92.2008" stroke="#FFEBDA" stroke-width="2" stroke-linecap="round" stroke-linejoin="round"/>
<path d="M132.054 85.798C142.815 86.8742 148.554 83.646 148.195 77.5482" stroke="#FFEBDA" stroke-width="2" stroke-linecap="round" stroke-linejoin="round"/>
<circle cx="1.79347" cy="1.79347" r="1" transform="matrix(-1 0 0 1 222.444 63.5591)" fill="#FFEBDA" stroke="#FFEBDA" stroke-width="1.58694" stroke-linecap="round" stroke-linejoin="round"/>
<circle cx="1.79347" cy="1.79347" r="1" transform="matrix(-1 0 0 1 158.597 97.2763)" fill="#FFEBDA" stroke="#FFEBDA" stroke-width="1.58694" stroke-linecap="round" stroke-linejoin="round"/>
<circle cx="1.79347" cy="1.79347" r="1" transform="matrix(-1 0 0 1 165.053 42.0375)" fill="#FFEBDA" stroke="#FFEBDA" stroke-width="1.58694" stroke-linecap="round" stroke-linejoin="round"/>
<circle cx="1.79347" cy="1.79347" r="1" transform="matrix(-1 0 0 1 175.097 8.32031)" fill="#FFEBDA" stroke="#FFEBDA" stroke-width="1.58694" stroke-linecap="round" stroke-linejoin="round"/>
<circle cx="1.79347" cy="1.79347" r="1" transform="matrix(-1 0 0 1 83.9883 25.5377)" fill="#FFEBDA" stroke="#FFEBDA" stroke-width="1.58694" stroke-linecap="round" stroke-linejoin="round"/>
<circle cx="1.79347" cy="1.79347" r="1" transform="matrix(-1 0 0 1 66.0537 92.972)" fill="#FFEBDA" stroke="#FFEBDA" stroke-width="1.58694" stroke-linecap="round" stroke-linejoin="round"/>
</g>
<g filter="url(#filter1_d_497_2)">
<path d="M135.602 92.8727C135.734 92.8036 135.867 92.734 136 92.664C135.871 92.7355 135.738 92.805 135.602 92.8727C107.573 107.539 112.895 99.5187 94.7069 93.6136C77.5686 88.0492 61.2448 121.142 35.8518 87.4434C26.3592 90.0285 22.8252 88.6734 18.2906 81.5104C0.254307 89.1046 1.44083 59.4399 16.629 64.6609C17.8156 57.7787 23.7488 55.4054 30.1564 58.7279C30.3937 57.0666 31.2972 52.0503 35.852 50.6592C26.3593 41.641 41.5476 24.3165 51.0403 40.9288C55.5493 33.5719 65.042 34.9958 70.0257 45.2005C80.782 38.5317 85.6887 39.0302 89.4858 44.2512C103.962 25.5031 124.846 43.5392 107.522 58.4902C116.777 62.05 111.556 77.2383 97.3172 77.9503C96.6053 80.5608 108.471 79.8488 110.607 87.443C112.7 94.8858 128.876 96.2012 135.602 92.8727Z" fill="#B48B49"/>
<path d="M42.0234 73.6785C42.0234 66.5588 50.0922 66.3215 50.8042 73.6785C50.3574 82.7714 34.4287 83.6458 34.4287 72.2546C34.4287 66.7963 36.3267 59.914 46.5319 62.0499C45.82 46.6244 68.6024 41.6406 70.0263 62.0499C87.5878 65.3725 78.5698 81.2727 69.5517 80.0862C58.6351 80.0862 60.2963 64.4232 68.1278 66.5591C71.6085 67.5083 72.3995 70.3561 70.7383 72.7293" stroke="#FFEBDA" stroke-linecap="round" stroke-linejoin="round"/>
<path d="M76.1931 54.4552C75.7217 47.3363 87.9133 47.8329 85.2144 54.6932C79.5191 69.1696 59.3464 53.2693 70.0259 45.2005" stroke="#FFEBDA" stroke-linecap="round" stroke-linejoin="round"/>
<path d="M52.9395 59.9141C53.6514 57.3036 55.5499 53.7439 60.7709 55.1678" stroke="#FFEBDA" stroke-linecap="round" stroke-linejoin="round"/>
<path d="M39.47 47.1993C38.5577 44.6519 39.6494 41.1661 42.0223 40.6915" stroke="#FFEBDA" stroke-linecap="round" stroke-linejoin="round"/>
<path d="M95.8927 45.18C97.5545 42.1154 104.911 41.878 105.623 47.5738" stroke="#FFEBDA" stroke-linecap="round" stroke-linejoin="round"/>
<path d="M58.3756 48.5757C57.4632 46.0283 57.6856 41.6408 62.9069 43.7766" stroke="#FFEBDA" stroke-linecap="round" stroke-linejoin="round"/>
<path d="M11.4084 75.8143C9.98443 74.6277 9.30722 69.817 13.27 67.9211" stroke="#FFEBDA" stroke-linecap="round" stroke-linejoin="round"/>
<path d="M32.5297 80.3234C25.1725 87.2056 22.7993 71.5427 34.0268 75.1675" stroke="#FFEBDA" stroke-linecap="round" stroke-linejoin="round"/>
<path d="M38.4168 58.8112C37.513 54.2185 46.0565 53.7438 43.4454 61.5754" stroke="#FFEBDA" stroke-linecap="round" stroke-linejoin="round"/>
<path d="M99.8527 69.5545C98.0288 53.032 78.5689 71.5427 97.3167 78.1876" stroke="#FFEBDA" stroke-linecap="round" stroke-linejoin="round"/>
<path d="M30.1551 58.9641C29.3407 62.2977 34.3422 66.3775 33.2421 67.9829C24.4608 80.7981 16.6294 59.4395 27.3082 67.271" stroke="#FFEBDA" stroke-linecap="round" stroke-linejoin="round"/>
<path d="M53.8882 98.3596C51.0405 96.9358 42.4969 91.0028 43.5197 87.0333" stroke="#FFEBDA" stroke-linecap="round" stroke-linejoin="round"/>
<path d="M73.5856 95.2746C58.6344 100.495 51.7368 89.2405 52.7596 85.271" stroke="#FFEBDA" stroke-linecap="round" stroke-linejoin="round"/>
<path d="M85.4519 88.3437C97.5551 82.6967 103.963 89.5789 108.234 94.7999" stroke="#FFEBDA" stroke-linecap="round" stroke-linejoin="round"/>
<path d="M103.962 86.9684C106.81 87.1701 110.37 95.0016 114.642 95.0016" stroke="#FFEBDA" stroke-linecap="round" stroke-linejoin="round"/>
<path d="M73.1104 90.7653C65.9909 91.4773 62.1937 89.3415 62.431 85.3071" stroke="#FFEBDA" stroke-linecap="round" stroke-linejoin="round"/>
<circle cx="14.4932" cy="77.2383" r="0.686588" fill="#FFEBDA" stroke="#FFEBDA" stroke-linecap="round" stroke-linejoin="round"/>
<circle cx="56.7364" cy="99.5462" r="0.686588" fill="#FFEBDA" stroke="#FFEBDA" stroke-linecap="round" stroke-linejoin="round"/>
<circle cx="52.4649" cy="62.9993" r="0.686588" fill="#FFEBDA" stroke="#FFEBDA" stroke-linecap="round" stroke-linejoin="round"/>
<circle cx="45.8194" cy="40.6914" r="0.686588" fill="#FFEBDA" stroke="#FFEBDA" stroke-linecap="round" stroke-linejoin="round"/>
<circle cx="106.099" cy="52.0827" r="0.686588" fill="#FFEBDA" stroke="#FFEBDA" stroke-linecap="round" stroke-linejoin="round"/>
<circle cx="117.964" cy="96.6983" r="0.686588" fill="#FFEBDA" stroke="#FFEBDA" stroke-linecap="round" stroke-linejoin="round"/>
</g>
<defs>
<filter id="filter0_d_497_2" x="32" y="0" width="208" height="113.992" filterUnits="userSpaceOnUse" color-interpolation-filters="sRGB">
<feFlood flood-opacity="0" result="BackgroundImageFix"/>
<feColorMatrix in="SourceAlpha" type="matrix" values="0 0 0 0 0 0 0 0 0 0 0 0 0 0 0 0 0 0 127 0" result="hardAlpha"/>
<feOffset dy="5"/>
<feGaussianBlur stdDeviation="2.5"/>
<feComposite in2="hardAlpha" operator="out"/>
<feColorMatrix type="matrix" values="0 0 0 0 0 0 0 0 0 0 0 0 0 0 0 0 0 0 0.3 0"/>
<feBlend mode="normal" in2="BackgroundImageFix" result="effect1_dropShadow_497_2"/>
<feBlend mode="normal" in="SourceGraphic" in2="effect1_dropShadow_497_2" result="shape"/>
</filter>
<filter id="filter1_d_497_2" x="0" y="34" width="141" height="78.8029" filterUnits="userSpaceOnUse" color-interpolation-filters="sRGB">
<feFlood flood-opacity="0" result="BackgroundImageFix"/>
<feColorMatrix in="SourceAlpha" type="matrix" values="0 0 0 0 0 0 0 0 0 0 0 0 0 0 0 0 0 0 127 0" result="hardAlpha"/>
<feOffset dy="5"/>
<feGaussianBlur stdDeviation="2.5"/>
<feComposite in2="hardAlpha" operator="out"/>
<feColorMatrix type="matrix" values="0 0 0 0 0 0 0 0 0 0 0 0 0 0 0 0 0 0 0.3 0"/>
<feBlend mode="normal" in2="BackgroundImageFix" result="effect1_dropShadow_497_2"/>
<feBlend mode="normal" in="SourceGraphic" in2="effect1_dropShadow_497_2" result="shape"/>
</filter>
</defs>
</svg>
