<svg width="208" height="114" viewBox="0 0 208 114" fill="none" xmlns="http://www.w3.org/2000/svg">
<g filter="url(#filter0_d_416_554)">
<path d="M202.398 88.9831C202.598 88.8787 202.798 88.7736 203 88.6677C202.805 88.7757 202.605 88.8809 202.398 88.9831C160.033 111.151 168.077 99.0283 140.587 90.103C114.684 81.6927 90.0112 131.712 51.631 80.777C37.2834 84.6842 31.9419 82.6362 25.0881 71.8096C-2.17288 83.2879 -0.379506 38.4511 22.5767 46.3424C24.3702 35.9403 33.3379 32.3532 43.0226 37.3749C43.3813 34.8641 44.747 27.2822 51.6312 25.1796C37.2835 11.549 60.2399 -14.6361 74.5876 10.4725C81.4028 -0.647028 95.7506 1.50513 103.283 16.929C119.541 6.84951 126.957 7.60291 132.696 15.4942C154.576 -12.8426 186.141 14.4181 159.957 37.0158C173.946 42.3962 166.055 65.3526 144.533 66.4287C143.457 70.3743 161.392 69.2982 164.62 80.7764C167.784 92.0259 192.233 94.014 202.398 88.9831Z" fill="#B48B49"/>
<path d="M60.9586 59.9721C60.9586 49.2111 73.1541 48.8524 74.2302 59.9721C73.5549 73.7156 49.4795 75.0372 49.4795 57.8199C49.4795 49.5701 52.3482 39.1678 67.7729 42.3961C66.6968 19.0812 101.131 11.5484 103.284 42.3961C129.827 47.418 116.197 71.4505 102.566 69.657C86.0663 69.657 88.5771 45.9832 100.414 49.2114C105.675 50.6462 106.87 54.9505 104.36 58.5375" stroke="#FFEBDA" stroke-width="2" stroke-linecap="round" stroke-linejoin="round"/>
<path d="M112.604 30.9169C111.892 20.1571 130.319 20.9077 126.24 31.2766C117.631 53.157 87.1415 29.1245 103.283 16.9289" stroke="#FFEBDA" stroke-width="2" stroke-linecap="round" stroke-linejoin="round"/>
<path d="M77.458 39.1678C78.5341 35.2221 81.4036 29.8419 89.2949 31.9939" stroke="#FFEBDA" stroke-width="2" stroke-linecap="round" stroke-linejoin="round"/>
<path d="M57.0991 19.95C55.7202 16.0997 57.3703 10.8311 60.9568 10.1138" stroke="#FFEBDA" stroke-width="2" stroke-linecap="round" stroke-linejoin="round"/>
<path d="M142.38 16.8979C144.892 12.266 156.011 11.9072 157.087 20.516" stroke="#FFEBDA" stroke-width="2" stroke-linecap="round" stroke-linejoin="round"/>
<path d="M85.6745 22.0305C84.2955 18.1801 84.6317 11.5486 92.5234 14.7769" stroke="#FFEBDA" stroke-width="2" stroke-linecap="round" stroke-linejoin="round"/>
<path d="M14.6862 63.2004C12.534 61.4069 11.5105 54.1357 17.5001 51.2702" stroke="#FFEBDA" stroke-width="2" stroke-linecap="round" stroke-linejoin="round"/>
<path d="M46.6094 70.0156C35.4894 80.4177 31.9025 56.7439 48.8722 62.2227" stroke="#FFEBDA" stroke-width="2" stroke-linecap="round" stroke-linejoin="round"/>
<path d="M55.5082 37.5009C54.1422 30.5592 67.0552 29.8418 63.1086 41.6789" stroke="#FFEBDA" stroke-width="2" stroke-linecap="round" stroke-linejoin="round"/>
<path d="M148.366 53.7388C145.609 28.7657 116.196 56.7437 144.533 66.7872" stroke="#FFEBDA" stroke-width="2" stroke-linecap="round" stroke-linejoin="round"/>
<path d="M43.0203 37.732C41.7895 42.7706 49.349 48.937 47.6862 51.3635C34.4138 70.733 22.577 38.4506 38.7173 50.2874" stroke="#FFEBDA" stroke-width="2" stroke-linecap="round" stroke-linejoin="round"/>
<path d="M78.8918 97.2763C74.5876 95.1242 61.6744 86.1569 63.2203 80.1572" stroke="#FFEBDA" stroke-width="2" stroke-linecap="round" stroke-linejoin="round"/>
<path d="M108.663 92.6136C86.0653 100.505 75.6399 83.4935 77.1858 77.4938" stroke="#FFEBDA" stroke-width="2" stroke-linecap="round" stroke-linejoin="round"/>
<path d="M126.599 82.1378C144.892 73.6026 154.577 84.0047 161.033 91.8959" stroke="#FFEBDA" stroke-width="2" stroke-linecap="round" stroke-linejoin="round"/>
<path d="M154.577 80.0589C158.881 80.3639 164.261 92.2008 170.718 92.2008" stroke="#FFEBDA" stroke-width="2" stroke-linecap="round" stroke-linejoin="round"/>
<path d="M107.946 85.798C97.1851 86.8742 91.4459 83.646 91.8046 77.5482" stroke="#FFEBDA" stroke-width="2" stroke-linecap="round" stroke-linejoin="round"/>
<circle cx="19.3491" cy="65.3526" r="1" fill="#FFEBDA" stroke="#FFEBDA" stroke-width="1.58694" stroke-linecap="round" stroke-linejoin="round"/>
<circle cx="83.1968" cy="99.0698" r="1" fill="#FFEBDA" stroke="#FFEBDA" stroke-width="1.58694" stroke-linecap="round" stroke-linejoin="round"/>
<circle cx="76.7407" cy="43.8309" r="1" fill="#FFEBDA" stroke="#FFEBDA" stroke-width="1.58694" stroke-linecap="round" stroke-linejoin="round"/>
<circle cx="66.6968" cy="10.1138" r="1" fill="#FFEBDA" stroke="#FFEBDA" stroke-width="1.58694" stroke-linecap="round" stroke-linejoin="round"/>
<circle cx="157.805" cy="27.3311" r="1" fill="#FFEBDA" stroke="#FFEBDA" stroke-width="1.58694" stroke-linecap="round" stroke-linejoin="round"/>
<circle cx="175.74" cy="94.7655" r="1" fill="#FFEBDA" stroke="#FFEBDA" stroke-width="1.58694" stroke-linecap="round" stroke-linejoin="round"/>
</g>
<defs>
<filter id="filter0_d_416_554" x="0" y="0" width="208" height="113.992" filterUnits="userSpaceOnUse" color-interpolation-filters="sRGB">
<feFlood flood-opacity="0" result="BackgroundImageFix"/>
<feColorMatrix in="SourceAlpha" type="matrix" values="0 0 0 0 0 0 0 0 0 0 0 0 0 0 0 0 0 0 127 0" result="hardAlpha"/>
<feOffset dy="5"/>
<feGaussianBlur stdDeviation="2.5"/>
<feComposite in2="hardAlpha" operator="out"/>
<feColorMatrix type="matrix" values="0 0 0 0 0 0 0 0 0 0 0 0 0 0 0 0 0 0 0.3 0"/>
<feBlend mode="normal" in2="BackgroundImageFix" result="effect1_dropShadow_416_554"/>
<feBlend mode="normal" in="SourceGraphic" in2="effect1_dropShadow_416_554" result="shape"/>
</filter>
</defs>
</svg>
