<svg width="300" height="262" viewBox="0 0 490 262" fill="none" xmlns="http://www.w3.org/2000/svg">
<g filter="url(#filter0_d_499_3)">
<path d="M483.141 215.536C483.624 215.284 484.11 215.029 484.599 214.772C484.127 215.034 483.641 215.289 483.141 215.536C380.524 269.232 400.009 239.868 333.422 218.249C270.678 197.877 210.915 319.034 117.95 195.659C83.1974 205.124 70.2591 200.163 53.6578 173.938C-12.3743 201.741 -8.03032 93.137 47.5746 112.251C51.9187 87.0551 73.6404 78.3665 97.0989 90.5301C97.9677 84.4483 101.276 66.0833 117.951 60.9904C83.1976 27.9741 138.803 -35.4518 173.556 25.3666C190.064 -1.56724 224.817 3.64576 243.063 41.0056C282.442 16.591 300.406 18.4159 314.307 37.5302C367.306 -31.1076 443.763 34.9237 380.339 89.6602C414.223 102.693 395.109 158.298 342.979 160.905C340.372 170.462 383.814 167.855 391.633 195.658C399.297 222.907 458.518 227.722 483.141 215.536Z" fill="#B48B49"/>
<path d="M140.544 145.265C140.544 119.2 170.084 118.331 172.691 145.265C171.055 178.555 112.739 181.756 112.739 140.052C112.739 120.069 119.688 94.8728 157.05 102.693C154.443 46.2186 237.851 27.9728 243.064 102.693C307.358 114.857 274.342 173.068 241.327 168.724C201.36 168.724 207.442 111.381 236.114 119.201C248.857 122.676 251.753 133.102 245.671 141.79" stroke="#FFEBDA" stroke-width="2" stroke-linecap="round" stroke-linejoin="round"/>
<path d="M265.641 74.8874C263.915 48.8249 308.549 50.643 298.668 75.7588C277.818 128.758 203.964 70.5458 243.063 41.0054" stroke="#FFEBDA" stroke-width="2" stroke-linecap="round" stroke-linejoin="round"/>
<path d="M180.509 94.8728C183.115 85.3155 190.066 72.2834 209.18 77.4961" stroke="#FFEBDA" stroke-width="2" stroke-linecap="round" stroke-linejoin="round"/>
<path d="M131.196 48.3233C127.855 38.997 131.852 26.2353 140.54 24.4978" stroke="#FFEBDA" stroke-width="2" stroke-linecap="round" stroke-linejoin="round"/>
<path d="M337.764 40.9303C343.849 29.711 370.782 28.8419 373.386 49.6942" stroke="#FFEBDA" stroke-width="2" stroke-linecap="round" stroke-linejoin="round"/>
<path d="M200.411 53.3625C197.071 44.0362 197.885 27.9731 217 35.7927" stroke="#FFEBDA" stroke-width="2" stroke-linecap="round" stroke-linejoin="round"/>
<path d="M28.4625 153.085C23.2494 148.741 20.7701 131.128 35.2782 124.187" stroke="#FFEBDA" stroke-width="2" stroke-linecap="round" stroke-linejoin="round"/>
<path d="M105.786 169.593C78.8514 194.789 70.1632 137.446 111.267 150.717" stroke="#FFEBDA" stroke-width="2" stroke-linecap="round" stroke-linejoin="round"/>
<path d="M127.342 90.8353C124.033 74.0211 155.311 72.2834 145.751 100.955" stroke="#FFEBDA" stroke-width="2" stroke-linecap="round" stroke-linejoin="round"/>
<path d="M352.263 130.167C345.586 69.6768 274.342 137.446 342.978 161.773" stroke="#FFEBDA" stroke-width="2" stroke-linecap="round" stroke-linejoin="round"/>
<path d="M97.0935 91.3949C94.1122 103.6 112.423 118.536 108.395 124.413C76.2466 171.331 47.5754 93.1356 86.6708 121.807" stroke="#FFEBDA" stroke-width="2" stroke-linecap="round" stroke-linejoin="round"/>
<path d="M183.981 235.624C173.556 230.411 142.277 208.691 146.022 194.158" stroke="#FFEBDA" stroke-width="2" stroke-linecap="round" stroke-linejoin="round"/>
<path d="M256.095 224.33C201.358 243.444 176.105 202.239 179.85 187.706" stroke="#FFEBDA" stroke-width="2" stroke-linecap="round" stroke-linejoin="round"/>
<path d="M299.538 198.955C343.849 178.281 367.307 203.477 382.946 222.592" stroke="#FFEBDA" stroke-width="2" stroke-linecap="round" stroke-linejoin="round"/>
<path d="M367.307 193.92C377.733 194.659 390.765 223.33 406.404 223.33" stroke="#FFEBDA" stroke-width="2" stroke-linecap="round" stroke-linejoin="round"/>
<path d="M254.357 207.821C228.292 210.428 214.39 202.609 215.259 187.838" stroke="#FFEBDA" stroke-width="2" stroke-linecap="round" stroke-linejoin="round"/>
<circle cx="39.7563" cy="158.298" r="3.34417" fill="#FFEBDA" stroke="#FFEBDA" stroke-width="2" stroke-linecap="round" stroke-linejoin="round"/>
<circle cx="194.41" cy="239.968" r="3.34417" fill="#FFEBDA" stroke="#FFEBDA" stroke-width="2" stroke-linecap="round" stroke-linejoin="round"/>
<circle cx="178.772" cy="106.168" r="3.34417" fill="#FFEBDA" stroke="#FFEBDA" stroke-width="2" stroke-linecap="round" stroke-linejoin="round"/>
<circle cx="154.443" cy="24.4977" r="3.34417" fill="#FFEBDA" stroke="#FFEBDA" stroke-width="2" stroke-linecap="round" stroke-linejoin="round"/>
<circle cx="375.127" cy="66.2019" r="3.34417" fill="#FFEBDA" stroke="#FFEBDA" stroke-width="2" stroke-linecap="round" stroke-linejoin="round"/>
<circle cx="418.569" cy="229.542" r="3.34417" fill="#FFEBDA" stroke="#FFEBDA" stroke-width="2" stroke-linecap="round" stroke-linejoin="round"/>
</g>
<defs>
<filter id="filter0_d_499_3" x="0" y="0" width="489.599" height="261.891" filterUnits="userSpaceOnUse" color-interpolation-filters="sRGB">
<feFlood flood-opacity="0" result="BackgroundImageFix"/>
<feColorMatrix in="SourceAlpha" type="matrix" values="0 0 0 0 0 0 0 0 0 0 0 0 0 0 0 0 0 0 127 0" result="hardAlpha"/>
<feOffset dy="5"/>
<feGaussianBlur stdDeviation="2.5"/>
<feComposite in2="hardAlpha" operator="out"/>
<feColorMatrix type="matrix" values="0 0 0 0 0 0 0 0 0 0 0 0 0 0 0 0 0 0 0.3 0"/>
<feBlend mode="normal" in2="BackgroundImageFix" result="effect1_dropShadow_499_3"/>
<feBlend mode="normal" in="SourceGraphic" in2="effect1_dropShadow_499_3" result="shape"/>
</filter>
</defs>
</svg>
